<?xml version="1.0" encoding="UTF-8"?>
<svg width="300px" height="300px" viewBox="0 0 300 300" version="1.1" xmlns="http://www.w3.org/2000/svg" xmlns:xlink="http://www.w3.org/1999/xlink">
    <!-- Generator: Sketch 45 (43475) - http://www.bohemiancoding.com/sketch -->
    <title>1000</title>
    <desc>Created with Sketch.</desc>
    <defs>
        <linearGradient x1="0%" y1="53.2688379%" x2="100%" y2="53.2688351%" id="linearGradient-1">
            <stop stop-color="#DFAA0C" stop-opacity="0.210824275" offset="0%"></stop>
            <stop stop-color="#DFAA0C" offset="100%"></stop>
        </linearGradient>
    </defs>
    <g id="Page-1" stroke="none" stroke-width="1" fill="none" fill-rule="evenodd">
        <circle id="inner-circle" fill="url(#linearGradient-1)" cx="150.04087" cy="149.95913" r="149.576515"></circle>
        <path d="M150.5,284 C76.2177012,284 16,223.782299 16,149.5 C16,75.2177012 76.2177012,15 150.5,15 C224.782299,15 285,75.2177012 285,149.5 C285,223.782299 224.782299,284 150.5,284 Z M151,277 C221.140163,277 278,220.140163 278,150 C278,79.8598368 221.140163,23 151,23 C80.8598368,23 24,79.8598368 24,150 C24,220.140163 80.8598368,277 151,277 Z" id="inner-ring" fill="#B2832B"></path>
        <path d="M150.5,299 C67.9334299,299 1,232.06657 1,149.5 C1,66.9334299 67.9334299,0 150.5,0 C233.06657,0 300,66.9334299 300,149.5 C300,232.06657 233.06657,299 150.5,299 Z M150.5,284 C224.782299,284 285,223.782299 285,149.5 C285,75.2177012 224.782299,15 150.5,15 C76.2177012,15 16,75.2177012 16,149.5 C16,223.782299 76.2177012,284 150.5,284 Z" id="outer-circle" fill="url(#linearGradient-1)"></path>
        <text id="1000" font-family="Inconsolata-BoldForPowerline, Inconsolata for Powerline" font-size="100" font-weight="bold" fill="#B2832B">
            <tspan x="50" y="171">1000</tspan>
        </text>
        <g id="eSteem-Logo" transform="translate(122.000000, 30.000000)" fill="#B2832B">
            <path d="M53.6969682,18.956363 C53.3460824,17.9071191 51.4667276,13.4838429 50.8356112,12.9366933 L51.4346428,16.6732165 C55.0131309,59.5638752 2.30449881,54.1814658 7.56539523,23.7568072 C9.24746215,16.8551446 12.822537,11.9604937 19.3862844,9.00322346 C23.903426,6.96685754 31.8597937,6.07633144 35.1959386,10.450115 C35.5884664,10.9648384 36.0874887,12.2315086 36.0571104,13.0305586 C35.7738078,20.5339834 16.6068463,27.3905906 8.59962063,24.695802 C12.2293081,32.1947895 21.4817002,31.9541529 27.8078829,29.7290323 C33.7828385,27.6274726 40.2144918,23.2608569 43.101107,17.4545175 C49.0361273,5.51723533 33.889333,-0.997019402 23.3863133,0.496292856 C-0.40530828,3.87885845 -8.0613069,34.6342644 10.9332837,49.3660031 C31.6884468,65.4657866 62.4209837,45.0171365 53.6969682,18.956363" id="Fill-1"></path>
            <path d="M45.0517722,6.5625206 C48.2401218,11.5759538 46.6369018,17.560808 42.9498712,21.9192319 C35.1518799,31.6546038 20.7334807,35.8089132 9.9464756,29.4506456 C29.0403928,50.8632074 60.4344244,31.662113 45.0517722,6.5625206" id="Fill-3"></path>
        </g>
        <g id="eSteem-Logo" transform="translate(190.000000, 190.000000)" fill="#B2832B">
            <path d="M53.6969682,18.956363 C53.3460824,17.9071191 51.4667276,13.4838429 50.8356112,12.9366933 L51.4346428,16.6732165 C55.0131309,59.5638752 2.30449881,54.1814658 7.56539523,23.7568072 C9.24746215,16.8551446 12.822537,11.9604937 19.3862844,9.00322346 C23.903426,6.96685754 31.8597937,6.07633144 35.1959386,10.450115 C35.5884664,10.9648384 36.0874887,12.2315086 36.0571104,13.0305586 C35.7738078,20.5339834 16.6068463,27.3905906 8.59962063,24.695802 C12.2293081,32.1947895 21.4817002,31.9541529 27.8078829,29.7290323 C33.7828385,27.6274726 40.2144918,23.2608569 43.101107,17.4545175 C49.0361273,5.51723533 33.889333,-0.997019402 23.3863133,0.496292856 C-0.40530828,3.87885845 -8.0613069,34.6342644 10.9332837,49.3660031 C31.6884468,65.4657866 62.4209837,45.0171365 53.6969682,18.956363" id="Fill-1"></path>
            <path d="M45.0517722,6.5625206 C48.2401218,11.5759538 46.6369018,17.560808 42.9498712,21.9192319 C35.1518799,31.6546038 20.7334807,35.8089132 9.9464756,29.4506456 C29.0403928,50.8632074 60.4344244,31.662113 45.0517722,6.5625206" id="Fill-3"></path>
        </g>
        <g id="eSteem-Logo" transform="translate(58.000000, 190.000000)" fill="#B2832B">
            <path d="M53.6969682,18.956363 C53.3460824,17.9071191 51.4667276,13.4838429 50.8356112,12.9366933 L51.4346428,16.6732165 C55.0131309,59.5638752 2.30449881,54.1814658 7.56539523,23.7568072 C9.24746215,16.8551446 12.822537,11.9604937 19.3862844,9.00322346 C23.903426,6.96685754 31.8597937,6.07633144 35.1959386,10.450115 C35.5884664,10.9648384 36.0874887,12.2315086 36.0571104,13.0305586 C35.7738078,20.5339834 16.6068463,27.3905906 8.59962063,24.695802 C12.2293081,32.1947895 21.4817002,31.9541529 27.8078829,29.7290323 C33.7828385,27.6274726 40.2144918,23.2608569 43.101107,17.4545175 C49.0361273,5.51723533 33.889333,-0.997019402 23.3863133,0.496292856 C-0.40530828,3.87885845 -8.0613069,34.6342644 10.9332837,49.3660031 C31.6884468,65.4657866 62.4209837,45.0171365 53.6969682,18.956363" id="Fill-1"></path>
            <path d="M45.0517722,6.5625206 C48.2401218,11.5759538 46.6369018,17.560808 42.9498712,21.9192319 C35.1518799,31.6546038 20.7334807,35.8089132 9.9464756,29.4506456 C29.0403928,50.8632074 60.4344244,31.662113 45.0517722,6.5625206" id="Fill-3"></path>
        </g>
    </g>
</svg>