<?xml version="1.0" encoding="UTF-8"?>
<svg width="300px" height="400px" viewBox="0 0 300 400" version="1.1" xmlns="http://www.w3.org/2000/svg" xmlns:xlink="http://www.w3.org/1999/xlink">
    <!-- Generator: Sketch 45 (43475) - http://www.bohemiancoding.com/sketch -->
    <title>50</title>
    <desc>Created with Sketch.</desc>
    <defs>
        <linearGradient x1="0%" y1="53.2688379%" x2="100%" y2="53.2688351%" id="linearGradient-1">
            <stop stop-color="#E8B469" offset="0%"></stop>
            <stop stop-color="#CD7D38" offset="100%"></stop>
        </linearGradient>
    </defs>
    <g id="Page-1" stroke="none" stroke-width="1" fill="none" fill-rule="evenodd">
        <rect id="Rectangle" fill="url(#linearGradient-1)" x="0" y="0" width="300" height="400" rx="25"></rect>
        <path d="M37.5,20 L262.5,20 L262.5,20 C274.926407,20 285,30.0735931 285,42.5 L285,357.5 C285,369.926407 274.926407,380 262.5,380 L37.5,380 C25.0735931,380 15,369.926407 15,357.5 L15,42.5 L15,42.5 C15,30.0735931 25.0735931,20 37.5,20 L37.5,20 Z M44.25,30 L44.25,30 C32.5139491,30 23,39.5139491 23,51.25 L23,348.75 C23,360.486051 32.5139491,370 44.25,370 L256.75,370 C268.486051,370 278,360.486051 278,348.75 L278,51.25 C278,39.5139491 268.486051,30 256.75,30 L256.75,30 L44.25,30 Z" id="Rectangle" fill="#A7612E"></path>
        <text id="50" font-family="Inconsolata-BoldForPowerline, Inconsolata for Powerline" font-size="100" font-weight="bold" fill="#A7612E">
            <tspan x="100" y="308">50</tspan>
        </text>
        <g id="eSteem-Logo" transform="translate(75.000000, 76.000000)" fill="#A7612E">
            <path d="M145.687329,51.4312445 C144.735328,48.5845002 139.636377,36.5835377 137.924071,35.0990448 L139.549326,45.2367512 C149.258262,161.605063 6.2524252,147.001839 20.5259675,64.4555161 C25.0896486,45.7303474 34.7893231,32.4504799 52.5976809,24.4269951 C64.8533131,18.9020517 86.4400433,16.4859307 95.4914676,28.3526129 C96.55645,29.7491289 97.9103667,33.1857808 97.8279464,35.3537145 C97.0593069,55.7115476 45.0566795,74.3144749 23.3319646,67.0031392 C33.1798106,87.3489334 58.2828348,86.6960529 75.4466467,80.6589918 C91.657531,74.9571686 109.107499,63.109934 116.939287,47.3565292 C133.041821,14.9690254 91.9464653,-2.70505205 63.4503146,1.34651142 C-1.09965763,10.5238815 -21.8714447,93.9675675 29.6635165,133.93682 C85.9751553,177.617767 169.356795,122.137741 145.687329,51.4312445" id="Fill-1"></path>
            <path d="M122.231712,17.8050294 C130.882148,31.4071698 126.532389,47.6449101 116.528963,59.469919 C95.3719301,85.8833346 56.2528115,97.1545527 26.9861692,79.90369 C78.7906172,137.998943 163.966983,85.9037082 122.231712,17.8050294" id="Fill-3"></path>
        </g>
    </g>
</svg>