<?xml version="1.0" encoding="UTF-8"?>
<svg width="294px" height="258px" viewBox="0 0 294 258" version="1.1" xmlns="http://www.w3.org/2000/svg" xmlns:xlink="http://www.w3.org/1999/xlink">
    <!-- Generator: Sketch 44.1 (41455) - http://www.bohemiancoding.com/sketch -->
    <title>captain</title>
    <desc>Created with Sketch.</desc>
    <defs></defs>
    <g id="Page-1" stroke="none" stroke-width="1" fill="none" fill-rule="evenodd">
        <g id="Steem-Shuriken" transform="translate(1.000000, 1.000000)">
            <path d="M214.179109,-11.9569946 C209.570089,-8.62780845 206.570089,-6.29447512 205.179109,-4.95699459 C203.788129,-3.61951407 201.788129,-1.28618073 199.179109,2.04300541 C196.967466,5.1936007 195.467466,7.52693403 194.679109,9.04300541 C193.890752,10.5590768 193.057418,12.3924101 192.179109,14.5430054 L191.179109,19.0430054 L190.679109,24.0430054 C190.902505,26.6652697 191.069172,28.498603 191.179109,29.5430054 C191.289046,30.5874078 191.622379,32.2540745 192.179109,34.5430054 L216.679109,101.543005 C217.518515,104.323929 218.018515,106.490596 218.179109,108.043005 C218.339703,109.595415 218.339703,112.262081 218.179109,116.043005 L211.679109,141.543005 L215.679109,137.043005 C219.096699,133.510346 221.596699,130.843679 223.179109,129.043005 C224.761519,127.242332 227.094852,124.408999 230.179109,120.543005 C231.42016,118.728717 232.253494,117.395384 232.679109,116.543005 C233.317531,115.264438 234.194096,113.480697 234.679109,112.543005 C235.594156,110.773914 236.260823,108.607247 236.679109,106.043005 C237.728402,100.617633 238.061735,96.4509659 237.679109,93.5430054 C237.105169,89.1810647 236.84244,87.7817465 236.179109,85.5430054 C235.736888,84.0505113 235.070222,81.8838447 234.179109,79.0430054 L230.179109,67.5430054 L211.179109,22.0430054 C210.565882,18.9795223 210.232548,16.646189 210.179109,15.0430054 C210.125669,13.4398219 210.292336,10.7731552 210.679109,7.04300541 L214.179109,-11.9569946 Z" id="Steem-Blade" fill="#3D96F3" transform="translate(214.255791, 64.793005) rotate(60.000000) translate(-214.255791, -64.793005) "></path>
            <path d="M140.5,103 C135.89098,106.329186 132.89098,108.662519 131.5,110 C130.10902,111.337481 128.10902,113.670814 125.5,117 C123.288357,120.150595 121.788357,122.483929 121,124 C120.211643,125.516071 119.37831,127.349405 118.5,129.5 L117.5,134 L117,139 C117.223396,141.622264 117.390063,143.455598 117.5,144.5 C117.609937,145.544402 117.94327,147.211069 118.5,149.5 L143,216.5 C143.839406,219.280924 144.339406,221.447591 144.5,223 C144.660594,224.552409 144.660594,227.219076 144.5,231 L138,256.5 L142,252 C145.41759,248.46734 147.91759,245.800674 149.5,244 C151.08241,242.199326 153.415743,239.365993 156.5,235.5 C157.741052,233.685712 158.574385,232.352378 159,231.5 C159.638423,230.221432 160.514987,228.437691 161,227.5 C161.915047,225.730909 162.581714,223.564242 163,221 C164.049293,215.574627 164.382626,211.407961 164,208.5 C163.42606,204.138059 163.163331,202.738741 162.5,200.5 C162.05778,199.007506 161.391113,196.840839 160.5,194 L156.5,182.5 L137.5,137 C136.886773,133.936517 136.553439,131.603184 136.5,130 C136.446561,128.396816 136.613227,125.73015 137,122 L140.5,103 Z" id="Steem-Blade" fill="#154591" transform="translate(140.576682, 179.750000) rotate(180.000000) translate(-140.576682, -179.750000) "></path>
            <path d="M78.1791088,-17.9569946 C73.5700886,-14.6278085 70.5700886,-12.2944751 69.1791088,-10.9569946 C67.7881291,-9.61951407 65.7881291,-7.28618073 63.1791088,-3.95699459 C60.9674659,-0.806399303 59.4674659,1.52693403 58.6791088,3.04300541 C57.8907517,4.55907678 57.0574184,6.39241012 56.1791088,8.54300541 L55.1791088,13.0430054 L54.6791088,18.0430054 C54.9025051,20.6652697 55.0691717,22.498603 55.1791088,23.5430054 C55.2890459,24.5874078 55.6223792,26.2540745 56.1791088,28.5430054 L80.6791088,95.5430054 C81.5185147,98.3239294 82.0185147,100.490596 82.1791088,102.043005 C82.3397029,103.595415 82.3397029,106.262081 82.1791088,110.043005 L75.6791088,135.543005 L79.6791088,131.043005 C83.0966987,127.510346 85.5966987,124.843679 87.1791088,123.043005 C88.7615189,121.242332 91.0948523,118.408999 94.1791088,114.543005 C95.4201605,112.728717 96.2534938,111.395384 96.6791088,110.543005 C97.3175314,109.264438 98.1940961,107.480697 98.6791088,106.543005 C99.5941561,104.773914 100.260823,102.607247 100.679109,100.043005 C101.728402,94.6176326 102.061735,90.4509659 101.679109,87.5430054 C101.105169,83.1810647 100.84244,81.7817465 100.179109,79.5430054 C99.7368884,78.0505113 99.0702217,75.8838447 98.1791088,73.0430054 L94.1791088,61.5430054 L75.1791088,16.0430054 C74.5658816,12.9795223 74.2325483,10.646189 74.1791088,9.04300541 C74.1256694,7.43982186 74.292336,4.77315519 74.6791088,1.04300541 L78.1791088,-17.9569946 Z" id="Steem-Blade" fill="#154591" transform="translate(78.255791, 58.793005) rotate(300.000000) translate(-78.255791, -58.793005) "></path>
            <path d="M144,167 C107.549207,167 78,137.450793 78,101 C78,64.5492065 107.549207,35 144,35 C180.450793,35 210,64.5492065 210,101 C210,137.450793 180.450793,167 144,167 Z M144.5,161 C177.360943,161 204,134.360943 204,101.5 C204,68.6390574 177.360943,42 144.5,42 C111.639057,42 85,68.6390574 85,101.5 C85,134.360943 111.639057,161 144.5,161 Z" id="Oval" fill="#7ED321"></path>
        </g>
    </g>
</svg>