<?xml version="1.0" encoding="UTF-8"?>
<svg width="587px" height="515px" viewBox="0 0 587 515" version="1.1" xmlns="http://www.w3.org/2000/svg" xmlns:xlink="http://www.w3.org/1999/xlink">
    <!-- Generator: Sketch 45 (43475) - http://www.bohemiancoding.com/sketch -->
    <title>commodore</title>
    <desc>Created with Sketch.</desc>
    <defs></defs>
    <g id="Page-1" stroke="none" stroke-width="1" fill="none" fill-rule="evenodd">
        <g id="Steem-Shuriken" transform="translate(111.000000, 1.000000)">
            <path d="M180.5,451 C80.8126027,451 0,370.187397 0,270.5 C0,170.812603 80.8126027,90 180.5,90 C280.187397,90 361,170.812603 361,270.5 C361,370.187397 280.187397,451 180.5,451 Z M181.867424,434.590909 C271.737123,434.590909 344.590909,361.737123 344.590909,271.867424 C344.590909,181.997725 271.737123,109.143939 181.867424,109.143939 C91.9977251,109.143939 19.1439394,181.997725 19.1439394,271.867424 C19.1439394,361.737123 91.9977251,434.590909 181.867424,434.590909 Z" id="Oval" fill="#7ED321"></path>
            <path d="M251.179109,-11.9569946 C246.570089,-8.62780845 243.570089,-6.29447512 242.179109,-4.95699459 C240.788129,-3.61951407 238.788129,-1.28618073 236.179109,2.04300541 C233.967466,5.1936007 232.467466,7.52693403 231.679109,9.04300541 C230.890752,10.5590768 230.057418,12.3924101 229.179109,14.5430054 L228.179109,19.0430054 L227.679109,24.0430054 C227.902505,26.6652697 228.069172,28.498603 228.179109,29.5430054 C228.289046,30.5874078 228.622379,32.2540745 229.179109,34.5430054 L253.679109,101.543005 C254.518515,104.323929 255.018515,106.490596 255.179109,108.043005 C255.339703,109.595415 255.339703,112.262081 255.179109,116.043005 L248.679109,141.543005 L252.679109,137.043005 C256.096699,133.510346 258.596699,130.843679 260.179109,129.043005 C261.761519,127.242332 264.094852,124.408999 267.179109,120.543005 C268.42016,118.728717 269.253494,117.395384 269.679109,116.543005 C270.317531,115.264438 271.194096,113.480697 271.679109,112.543005 C272.594156,110.773914 273.260823,108.607247 273.679109,106.043005 C274.728402,100.617633 275.061735,96.4509659 274.679109,93.5430054 C274.105169,89.1810647 273.84244,87.7817465 273.179109,85.5430054 C272.736888,84.0505113 272.070222,81.8838447 271.179109,79.0430054 L267.179109,67.5430054 L248.179109,22.0430054 C247.565882,18.9795223 247.232548,16.646189 247.179109,15.0430054 C247.125669,13.4398219 247.292336,10.7731552 247.679109,7.04300541 L251.179109,-11.9569946 Z" id="Steem-Blade" fill="#3D96F3" transform="translate(251.255791, 64.793005) rotate(60.000000) translate(-251.255791, -64.793005) "></path>
            <path d="M177.5,103 C172.89098,106.329186 169.89098,108.662519 168.5,110 C167.10902,111.337481 165.10902,113.670814 162.5,117 C160.288357,120.150595 158.788357,122.483929 158,124 C157.211643,125.516071 156.37831,127.349405 155.5,129.5 L154.5,134 L154,139 C154.223396,141.622264 154.390063,143.455598 154.5,144.5 C154.609937,145.544402 154.94327,147.211069 155.5,149.5 L180,216.5 C180.839406,219.280924 181.339406,221.447591 181.5,223 C181.660594,224.552409 181.660594,227.219076 181.5,231 L175,256.5 L179,252 C182.41759,248.46734 184.91759,245.800674 186.5,244 C188.08241,242.199326 190.415743,239.365993 193.5,235.5 C194.741052,233.685712 195.574385,232.352378 196,231.5 C196.638423,230.221432 197.514987,228.437691 198,227.5 C198.915047,225.730909 199.581714,223.564242 200,221 C201.049293,215.574627 201.382626,211.407961 201,208.5 C200.42606,204.138059 200.163331,202.738741 199.5,200.5 C199.05778,199.007506 198.391113,196.840839 197.5,194 L193.5,182.5 L174.5,137 C173.886773,133.936517 173.553439,131.603184 173.5,130 C173.446561,128.396816 173.613227,125.73015 174,122 L177.5,103 Z" id="Steem-Blade" fill="#154591" transform="translate(177.576682, 179.750000) rotate(180.000000) translate(-177.576682, -179.750000) "></path>
            <path d="M115.179109,-17.9569946 C110.570089,-14.6278085 107.570089,-12.2944751 106.179109,-10.9569946 C104.788129,-9.61951407 102.788129,-7.28618073 100.179109,-3.95699459 C97.9674659,-0.806399303 96.4674659,1.52693403 95.6791088,3.04300541 C94.8907517,4.55907678 94.0574184,6.39241012 93.1791088,8.54300541 L92.1791088,13.0430054 L91.6791088,18.0430054 C91.9025051,20.6652697 92.0691717,22.498603 92.1791088,23.5430054 C92.2890459,24.5874078 92.6223792,26.2540745 93.1791088,28.5430054 L117.679109,95.5430054 C118.518515,98.3239294 119.018515,100.490596 119.179109,102.043005 C119.339703,103.595415 119.339703,106.262081 119.179109,110.043005 L112.679109,135.543005 L116.679109,131.043005 C120.096699,127.510346 122.596699,124.843679 124.179109,123.043005 C125.761519,121.242332 128.094852,118.408999 131.179109,114.543005 C132.42016,112.728717 133.253494,111.395384 133.679109,110.543005 C134.317531,109.264438 135.194096,107.480697 135.679109,106.543005 C136.594156,104.773914 137.260823,102.607247 137.679109,100.043005 C138.728402,94.6176326 139.061735,90.4509659 138.679109,87.5430054 C138.105169,83.1810647 137.84244,81.7817465 137.179109,79.5430054 C136.736888,78.0505113 136.070222,75.8838447 135.179109,73.0430054 L131.179109,61.5430054 L112.179109,16.0430054 C111.565882,12.9795223 111.232548,10.646189 111.179109,9.04300541 C111.125669,7.43982186 111.292336,4.77315519 111.679109,1.04300541 L115.179109,-17.9569946 Z" id="Steem-Blade" fill="#154591" transform="translate(115.255791, 58.793005) rotate(300.000000) translate(-115.255791, -58.793005) "></path>
        </g>
        <g id="Steem-Shuriken" transform="translate(1.000000, 258.000000)">
            <path d="M214.179109,-11.9569946 C209.570089,-8.62780845 206.570089,-6.29447512 205.179109,-4.95699459 C203.788129,-3.61951407 201.788129,-1.28618073 199.179109,2.04300541 C196.967466,5.1936007 195.467466,7.52693403 194.679109,9.04300541 C193.890752,10.5590768 193.057418,12.3924101 192.179109,14.5430054 L191.179109,19.0430054 L190.679109,24.0430054 C190.902505,26.6652697 191.069172,28.498603 191.179109,29.5430054 C191.289046,30.5874078 191.622379,32.2540745 192.179109,34.5430054 L216.679109,101.543005 C217.518515,104.323929 218.018515,106.490596 218.179109,108.043005 C218.339703,109.595415 218.339703,112.262081 218.179109,116.043005 L211.679109,141.543005 L215.679109,137.043005 C219.096699,133.510346 221.596699,130.843679 223.179109,129.043005 C224.761519,127.242332 227.094852,124.408999 230.179109,120.543005 C231.42016,118.728717 232.253494,117.395384 232.679109,116.543005 C233.317531,115.264438 234.194096,113.480697 234.679109,112.543005 C235.594156,110.773914 236.260823,108.607247 236.679109,106.043005 C237.728402,100.617633 238.061735,96.4509659 237.679109,93.5430054 C237.105169,89.1810647 236.84244,87.7817465 236.179109,85.5430054 C235.736888,84.0505113 235.070222,81.8838447 234.179109,79.0430054 L230.179109,67.5430054 L211.179109,22.0430054 C210.565882,18.9795223 210.232548,16.646189 210.179109,15.0430054 C210.125669,13.4398219 210.292336,10.7731552 210.679109,7.04300541 L214.179109,-11.9569946 Z" id="Steem-Blade" fill="#3D96F3" transform="translate(214.255791, 64.793005) rotate(60.000000) translate(-214.255791, -64.793005) "></path>
            <path d="M140.5,103 C135.89098,106.329186 132.89098,108.662519 131.5,110 C130.10902,111.337481 128.10902,113.670814 125.5,117 C123.288357,120.150595 121.788357,122.483929 121,124 C120.211643,125.516071 119.37831,127.349405 118.5,129.5 L117.5,134 L117,139 C117.223396,141.622264 117.390063,143.455598 117.5,144.5 C117.609937,145.544402 117.94327,147.211069 118.5,149.5 L143,216.5 C143.839406,219.280924 144.339406,221.447591 144.5,223 C144.660594,224.552409 144.660594,227.219076 144.5,231 L138,256.5 L142,252 C145.41759,248.46734 147.91759,245.800674 149.5,244 C151.08241,242.199326 153.415743,239.365993 156.5,235.5 C157.741052,233.685712 158.574385,232.352378 159,231.5 C159.638423,230.221432 160.514987,228.437691 161,227.5 C161.915047,225.730909 162.581714,223.564242 163,221 C164.049293,215.574627 164.382626,211.407961 164,208.5 C163.42606,204.138059 163.163331,202.738741 162.5,200.5 C162.05778,199.007506 161.391113,196.840839 160.5,194 L156.5,182.5 L137.5,137 C136.886773,133.936517 136.553439,131.603184 136.5,130 C136.446561,128.396816 136.613227,125.73015 137,122 L140.5,103 Z" id="Steem-Blade" fill="#154591" transform="translate(140.576682, 179.750000) rotate(180.000000) translate(-140.576682, -179.750000) "></path>
            <path d="M78.1791088,-17.9569946 C73.5700886,-14.6278085 70.5700886,-12.2944751 69.1791088,-10.9569946 C67.7881291,-9.61951407 65.7881291,-7.28618073 63.1791088,-3.95699459 C60.9674659,-0.806399303 59.4674659,1.52693403 58.6791088,3.04300541 C57.8907517,4.55907678 57.0574184,6.39241012 56.1791088,8.54300541 L55.1791088,13.0430054 L54.6791088,18.0430054 C54.9025051,20.6652697 55.0691717,22.498603 55.1791088,23.5430054 C55.2890459,24.5874078 55.6223792,26.2540745 56.1791088,28.5430054 L80.6791088,95.5430054 C81.5185147,98.3239294 82.0185147,100.490596 82.1791088,102.043005 C82.3397029,103.595415 82.3397029,106.262081 82.1791088,110.043005 L75.6791088,135.543005 L79.6791088,131.043005 C83.0966987,127.510346 85.5966987,124.843679 87.1791088,123.043005 C88.7615189,121.242332 91.0948523,118.408999 94.1791088,114.543005 C95.4201605,112.728717 96.2534938,111.395384 96.6791088,110.543005 C97.3175314,109.264438 98.1940961,107.480697 98.6791088,106.543005 C99.5941561,104.773914 100.260823,102.607247 100.679109,100.043005 C101.728402,94.6176326 102.061735,90.4509659 101.679109,87.5430054 C101.105169,83.1810647 100.84244,81.7817465 100.179109,79.5430054 C99.7368884,78.0505113 99.0702217,75.8838447 98.1791088,73.0430054 L94.1791088,61.5430054 L75.1791088,16.0430054 C74.5658816,12.9795223 74.2325483,10.646189 74.1791088,9.04300541 C74.1256694,7.43982186 74.292336,4.77315519 74.6791088,1.04300541 L78.1791088,-17.9569946 Z" id="Steem-Blade" fill="#154591" transform="translate(78.255791, 58.793005) rotate(300.000000) translate(-78.255791, -58.793005) "></path>
        </g>
        <g id="Steem-Shuriken" transform="translate(294.000000, 258.000000)">
            <path d="M214.179109,-11.9569946 C209.570089,-8.62780845 206.570089,-6.29447512 205.179109,-4.95699459 C203.788129,-3.61951407 201.788129,-1.28618073 199.179109,2.04300541 C196.967466,5.1936007 195.467466,7.52693403 194.679109,9.04300541 C193.890752,10.5590768 193.057418,12.3924101 192.179109,14.5430054 L191.179109,19.0430054 L190.679109,24.0430054 C190.902505,26.6652697 191.069172,28.498603 191.179109,29.5430054 C191.289046,30.5874078 191.622379,32.2540745 192.179109,34.5430054 L216.679109,101.543005 C217.518515,104.323929 218.018515,106.490596 218.179109,108.043005 C218.339703,109.595415 218.339703,112.262081 218.179109,116.043005 L211.679109,141.543005 L215.679109,137.043005 C219.096699,133.510346 221.596699,130.843679 223.179109,129.043005 C224.761519,127.242332 227.094852,124.408999 230.179109,120.543005 C231.42016,118.728717 232.253494,117.395384 232.679109,116.543005 C233.317531,115.264438 234.194096,113.480697 234.679109,112.543005 C235.594156,110.773914 236.260823,108.607247 236.679109,106.043005 C237.728402,100.617633 238.061735,96.4509659 237.679109,93.5430054 C237.105169,89.1810647 236.84244,87.7817465 236.179109,85.5430054 C235.736888,84.0505113 235.070222,81.8838447 234.179109,79.0430054 L230.179109,67.5430054 L211.179109,22.0430054 C210.565882,18.9795223 210.232548,16.646189 210.179109,15.0430054 C210.125669,13.4398219 210.292336,10.7731552 210.679109,7.04300541 L214.179109,-11.9569946 Z" id="Steem-Blade" fill="#3D96F3" transform="translate(214.255791, 64.793005) rotate(60.000000) translate(-214.255791, -64.793005) "></path>
            <path d="M140.5,103 C135.89098,106.329186 132.89098,108.662519 131.5,110 C130.10902,111.337481 128.10902,113.670814 125.5,117 C123.288357,120.150595 121.788357,122.483929 121,124 C120.211643,125.516071 119.37831,127.349405 118.5,129.5 L117.5,134 L117,139 C117.223396,141.622264 117.390063,143.455598 117.5,144.5 C117.609937,145.544402 117.94327,147.211069 118.5,149.5 L143,216.5 C143.839406,219.280924 144.339406,221.447591 144.5,223 C144.660594,224.552409 144.660594,227.219076 144.5,231 L138,256.5 L142,252 C145.41759,248.46734 147.91759,245.800674 149.5,244 C151.08241,242.199326 153.415743,239.365993 156.5,235.5 C157.741052,233.685712 158.574385,232.352378 159,231.5 C159.638423,230.221432 160.514987,228.437691 161,227.5 C161.915047,225.730909 162.581714,223.564242 163,221 C164.049293,215.574627 164.382626,211.407961 164,208.5 C163.42606,204.138059 163.163331,202.738741 162.5,200.5 C162.05778,199.007506 161.391113,196.840839 160.5,194 L156.5,182.5 L137.5,137 C136.886773,133.936517 136.553439,131.603184 136.5,130 C136.446561,128.396816 136.613227,125.73015 137,122 L140.5,103 Z" id="Steem-Blade" fill="#154591" transform="translate(140.576682, 179.750000) rotate(180.000000) translate(-140.576682, -179.750000) "></path>
            <path d="M78.1791088,-17.9569946 C73.5700886,-14.6278085 70.5700886,-12.2944751 69.1791088,-10.9569946 C67.7881291,-9.61951407 65.7881291,-7.28618073 63.1791088,-3.95699459 C60.9674659,-0.806399303 59.4674659,1.52693403 58.6791088,3.04300541 C57.8907517,4.55907678 57.0574184,6.39241012 56.1791088,8.54300541 L55.1791088,13.0430054 L54.6791088,18.0430054 C54.9025051,20.6652697 55.0691717,22.498603 55.1791088,23.5430054 C55.2890459,24.5874078 55.6223792,26.2540745 56.1791088,28.5430054 L80.6791088,95.5430054 C81.5185147,98.3239294 82.0185147,100.490596 82.1791088,102.043005 C82.3397029,103.595415 82.3397029,106.262081 82.1791088,110.043005 L75.6791088,135.543005 L79.6791088,131.043005 C83.0966987,127.510346 85.5966987,124.843679 87.1791088,123.043005 C88.7615189,121.242332 91.0948523,118.408999 94.1791088,114.543005 C95.4201605,112.728717 96.2534938,111.395384 96.6791088,110.543005 C97.3175314,109.264438 98.1940961,107.480697 98.6791088,106.543005 C99.5941561,104.773914 100.260823,102.607247 100.679109,100.043005 C101.728402,94.6176326 102.061735,90.4509659 101.679109,87.5430054 C101.105169,83.1810647 100.84244,81.7817465 100.179109,79.5430054 C99.7368884,78.0505113 99.0702217,75.8838447 98.1791088,73.0430054 L94.1791088,61.5430054 L75.1791088,16.0430054 C74.5658816,12.9795223 74.2325483,10.646189 74.1791088,9.04300541 C74.1256694,7.43982186 74.292336,4.77315519 74.6791088,1.04300541 L78.1791088,-17.9569946 Z" id="Steem-Blade" fill="#154591" transform="translate(78.255791, 58.793005) rotate(300.000000) translate(-78.255791, -58.793005) "></path>
        </g>
    </g>
</svg>